<svg xmlns="http://www.w3.org/2000/svg" viewBox="0 0 20.7 15.58"><defs><style>.a{fill:#fff;}</style></defs><path class="a" d="M52.54,40c-2.74,0-5.48,0-8.22,0-1.68,0-2.44-.56-2.41-2.31.07-3.82,0-7.65,0-11.47,0-.92-.14-1.87,1.33-1.79s1.22,1.06,1.22,1.94c0,2.83.14,5.66,0,8.48-.12,2,.37,2.73,2.54,2.64,4.56-.18,9.14-.06,13.71,0,.86,0,1.9-.27,1.92,1.22S61.71,40,60.77,40Z" transform="translate(-41.91 -24.44)"/><path class="a" d="M61.42,29a12.74,12.74,0,0,1,0,1.75c-.15,1.15-.85,1.84-1.81.92-1.16-1.12-1.8-.63-2.59.29-.48.57-1.08,1-1.57,1.6C54.18,35,53,35,51.72,33.52c-1-1.22-2.09-2.87-3.68-.48-.41.61-1,.42-1.48-.07s-.8-1-.37-1.74c1.64-3,3.55-3.3,6-1,.53.5,1.08,2,2.06.7.68-.91,3.25-1.34,1.25-3.33-.37-.37-.72-1-.31-1.31,1.52-1.22,3.35-.54,5-.57,1.31,0,1.22,1.08,1.22,2V29Z" transform="translate(-41.91 -24.44)"/></svg>
